<svg width="current" height="current" viewBox="0 0 16 16" fill="none" xmlns="http://www.w3.org/2000/svg">
  <mask id="a" style="mask-type:alpha" maskUnits="userSpaceOnUse" x="0" y="0" width="16" height="16">
    <path fill="#D9D9D9" d="M0 0h16v16H0z"/>
  </mask>
  <g mask="url(#a)">
    <path d="m6.367 8 4.9 4.9a.77.77 0 0 1 .241.583.83.83 0 0 1-.258.584.8.8 0 0 1-.583.25.8.8 0 0 1-.584-.25L4.95 8.95a1.332 1.332 0 0 1-.3-.45 1.337 1.337 0 0 1-.1-.5c0-.167.033-.333.1-.5.067-.167.167-.317.3-.45l5.133-5.133a.78.78 0 0 1 .592-.242.84.84 0 0 1 .592.258.8.8 0 0 1 .25.584.8.8 0 0 1-.25.583L6.367 8Z" fill="currentColor"/>
  </g>
</svg>
