<svg width="current" height="current" viewBox="0 0 16 16" fill="none" xmlns="http://www.w3.org/2000/svg">
  <mask id="a" style="mask-type:alpha" maskUnits="userSpaceOnUse" x="0" y="0" width="16" height="16">
    <path fill="#D9D9D9" d="M0 0h16v16H0z"/>
  </mask>
  <g mask="url(#a)">
    <path d="M5.333 9.333a.645.645 0 0 1-.475-.191.645.645 0 0 1-.191-.475c0-.19.064-.348.191-.475A.645.645 0 0 1 5.333 8c.19 0 .348.064.475.192A.645.645 0 0 1 6 8.667a.645.645 0 0 1-.192.475.645.645 0 0 1-.475.191Zm2.667 0a.645.645 0 0 1-.475-.191.645.645 0 0 1-.192-.475c0-.19.064-.348.192-.475A.645.645 0 0 1 8 8c.189 0 .347.064.475.192a.645.645 0 0 1 .192.475.645.645 0 0 1-.192.475.645.645 0 0 1-.475.191Zm2.667 0a.645.645 0 0 1-.475-.191.645.645 0 0 1-.192-.475c0-.19.064-.348.192-.475A.645.645 0 0 1 10.667 8c.189 0 .347.064.475.192a.645.645 0 0 1 .191.475.645.645 0 0 1-.191.475.645.645 0 0 1-.475.191Zm-7.334 5.334c-.366 0-.68-.13-.941-.392A1.284 1.284 0 0 1 2 13.333V4c0-.367.13-.68.392-.942.26-.26.575-.391.941-.391H4V2c0-.189.064-.347.192-.475a.645.645 0 0 1 .475-.192c.189 0 .347.064.475.192A.645.645 0 0 1 5.333 2v.667h5.334V2c0-.189.064-.347.191-.475a.645.645 0 0 1 .475-.192c.19 0 .348.064.475.192A.645.645 0 0 1 12 2v.667h.667c.366 0 .68.13.941.391.261.261.392.575.392.942v9.333c0 .367-.13.68-.392.942a1.284 1.284 0 0 1-.941.392H3.333Zm0-1.334h9.334V6.667H3.333v6.666Zm0-8h9.334V4H3.333v1.333Z" fill="currentColor"/>
  </g>
</svg>
